<svg width="169" height="52" viewBox="0 0 169 52" fill="none" xmlns="http://www.w3.org/2000/svg">
<path fill-rule="evenodd" clip-rule="evenodd" d="M134.12 13.2849L113.171 26.0688L113.153 26.118L113.136 26.1671L118.333 29.3387L123.529 32.5102V32.5627V32.6151L111.482 42.0642L99.4341 51.5132L99.3115 51.6143L99.1889 51.7154V51.7346V51.754L120.151 42.1693L141.113 32.5846L141.124 32.5509L141.135 32.5171L135.921 29.3373L130.706 26.1575V26.112V26.0666L142.509 13.7177L154.311 1.36877L154.727 0.934405L155.142 0.5L155.106 0.50049L155.069 0.500939L134.12 13.2849ZM143.233 23.8784V33.4215L137.627 35.8225L132.021 38.2235L132.003 38.2373L131.984 38.2513H150.492H169V34.9863V31.7213H160.307H151.614V30.6398V29.5583H160.307H169V26.2933V23.0283H160.307H151.614V21.9468V20.8653H160.307H169V17.6003V14.3353H156.117H143.233V23.8784ZM0 27.1912V38.2513H3.29887H6.59773V27.1912V16.1311H3.29887H0V27.1912ZM9.85202 27.1878V38.2513H13.173H16.494L16.5053 33.55L16.5166 28.8487L19.2328 31.4899L21.949 34.1311L21.9789 34.12L22.0088 34.1088L24.7237 31.4665L27.4385 28.8241L27.4499 33.5377L27.4612 38.2513H30.7599H34.0586V27.1821V16.1129L33.7576 16.3823L33.4567 16.6517L27.7104 21.7809L21.9641 26.91L21.3355 26.3438L20.7071 25.7776L15.3174 20.9646L9.92785 16.1515L9.88991 16.1379L9.85202 16.1242V27.1878ZM37.3128 19.1512V22.1713H46.1173H54.9217V23.1712V24.1711H46.1173H37.3128V31.2112V38.2513H40.634H43.9552V34.2313V30.2113H52.7373H61.5194V23.1712V16.1311H49.4161H37.3128V19.1512ZM64.7737 27.1912V38.2513H76.8769H88.9802V27.1912V16.1311H85.6591H82.3379V24.1711V32.2111H76.8769H71.416V24.1711V16.1311H68.0948H64.7737V27.1912ZM92.2345 27.1912V38.2513L103.056 38.2496L113.878 38.2479L117.541 35.4235L121.204 32.5991L121.185 32.5818L121.166 32.5646L110.545 32.3896L99.9244 32.2147L99.4006 32.2129L98.8768 32.2111V24.1711V16.1311H95.5557H92.2345V27.1912Z" fill="white"/>
</svg>
